<?xml version="1.0" encoding="UTF-8"?>
<svg version="1.1" viewBox="0 0 512 512" xml:space="preserve" xmlns="http://www.w3.org/2000/svg"><g><rect width="192" height="512" fill="#003b80" image-rendering="auto" stroke-width=".92582"/><rect x="192" width="320" height="512" fill="#fff" image-rendering="auto" stroke-width="1.1952"/><path d="m364.68 32c-16.471 1e-6 -30.224 5.6075-41.26 16.824-11.036 11.217-16.555 24.833-16.555 40.846 0 16.359 5.5189 30.014 16.555 40.965 11.036 10.951 24.789 16.428 41.26 16.428 16.471 0 30.22-5.5189 41.248-16.555 11.028-11.036 16.543-24.736 16.543-41.1 0-16.018-5.5148-29.589-16.543-40.717-11.028-11.128-24.777-16.691-41.248-16.691z" stroke-width=".54274"/></g><g stroke-width=".54274"><path d="m192 407.02c-2.4596 0.34833-4.9605 0.56055-7.5254 0.56055-11.759 0-23.339-3.8906-34.736-11.67-11.398-7.7794-25.418-11.668-42.062-11.668-16.644 0-29.127 3.2566-37.449 9.7695-8.3221 6.5129-20.443 10.311-36.363 11.396v47.221c14.809-1.0855 27.828-5.1572 39.059-12.213 11.23-7.0557 22.813-10.584 34.754-10.584 11.94 0 23.61 3.8 35.008 11.398 11.398 7.5984 24.696 11.398 39.893 11.398 3.2384 0 6.3662-0.20966 9.4238-0.55469v-45.055z" fill="#fff"/><path d="m192 407.02v45.055c11.291-1.2741 21.369-4.8645 30.195-10.844 11.217-7.5984 22.796-11.398 34.736-11.398 11.94 0 23.97 3.8 36.092 11.398 12.121 7.5984 25.782 11.398 40.979 11.398 15.197 0 28.133-3.8 38.807-11.398 10.674-7.5984 21.98-11.398 33.92-11.398 11.94 0 23.436 3.5283 34.484 10.584 11.049 7.0557 23.978 11.127 38.787 12.213v-47.221c-15.921-1.0855-27.951-4.8835-36.092-11.396-8.1412-6.513-20.536-9.7695-37.18-9.7695-16.644 0-29.94 3.8886-39.891 11.668-9.9503 7.7793-20.896 11.67-32.836 11.67-11.94 0-23.61-3.8906-35.008-11.67-11.398-7.7794-25.418-11.668-42.062-11.668s-29.852 3.8886-39.621 11.668c-7.7022 6.1332-16.147 9.8116-25.311 11.109z" fill="#003b80"/><path d="m192 298.82v45.43c11.483-1.078 21.741-4.7237 30.738-11.021 10.855-7.5984 22.169-11.398 33.943-11.398 12.106 0 24.402 3.8 36.885 11.398 12.483 7.5984 26.009 11.396 40.578 11.396 14.197 0 26.86-3.7981 37.986-11.396 11.126-7.5984 22.657-11.398 34.598-11.398 11.94 0 23.436 3.5283 34.484 10.584 11.049 7.0557 23.978 11.125 38.787 12.211v-45.047c-15.921-1.0855-27.951-4.7949-36.092-11.127-8.1412-6.332-20.536-9.498-37.18-9.498-16.644 0-30.303 3.4377-40.977 10.312-10.674 6.8748-22.072 10.312-34.193 10.312-11.398 0-22.524-3.4377-33.379-10.312-10.855-6.8748-24.604-10.312-41.248-10.312-16.644 0-30.214 3.4377-40.707 10.312-7.6843 5.0346-15.761 8.2071-24.225 9.5547z" fill="#003b80"/></g><g fill="#fff" stroke-width=".54274"><path d="m192 298.82c-3.0934 0.49257-6.2341 0.75781-9.4316 0.75781-12.297 0-23.692-3.4377-34.186-10.312-10.493-6.8748-24.063-10.312-40.707-10.312-16.644 0-29.127 3.166-37.449 9.498-8.3221 6.332-20.443 10.041-36.363 11.127v45.047c14.809-1.0855 27.828-5.1553 39.059-12.211 11.23-7.0557 22.813-10.584 34.754-10.584 11.94 0 24.154 3.8 36.637 11.398 12.483 7.5984 25.96 11.396 40.434 11.396 2.4774 0 4.8826-0.15237 7.2539-0.375v-45.43z"/><path d="m192 170.74-49.588 49.588c3.9801 5.0656 9.8593 9.409 17.639 13.027 7.7794 3.6183 15.212 5.4258 22.295 5.4258 3.3225 0 6.5335-0.22717 9.6543-0.64258v-67.398z"/><path d="m192 56.611c-4.4028-2.2242-8.9175-4.2963-13.586-6.1582-20.866-8.3221-45.35-12.482-73.451-12.482v54.816c21.71 0 38.897 2.2623 51.561 6.7852 12.664 4.5229 24.29 11.996 34.877 22.42l0.59961 0.59179v-65.973z"/></g><path d="m192 56.611v65.973l24.225 23.936-24.225 24.225v67.398c10.226-1.3612 19.381-4.9321 27.441-10.754 10.521-7.5984 23.017-11.398 37.49-11.398 14.473 0 27.06 3.8 37.762 11.398 10.701 7.5984 23.157 11.396 37.367 11.396 5.9977 0 12.887-1.1755 20.666-3.5274 7.7794-2.3519 14.202-5.8716 19.268-10.561l-138.94-138.42c-12.078-12.078-25.775-21.947-41.051-29.664z" stroke-width=".54274"/></svg>
